# xmcd CD database file generated by OrangeCD 5.1
#
# Track frame offsets:
#	151
#	12914
#	23959
#	40152
#	52741
#	68908
#	83029
#	94454
#	106109
#	121138
#	131323
#	151216
#	167923
#	186706
#	195085
#	208804
#	218893
#
# Disc length: 3149 seconds
#
# Revision: 0
# Processed by: cddbd v1.4PL0 Copyright (c) Steve Scherf et al.
# Submitted via: OrangeCD 5.1
#
DISCID=e10c4b11
DTITLE=Memphis Slim - Blues Cafe Presents
DYEAR=2002
DGENRE=Blues
TTITLE0=Blues For My Baby
TTITLE1=Having Fun
TTITLE2=Cow Cow Blues
TTITLE3=New Key To The Highway
TTITLE4=44 Blues
TTITLE5=Trouble In Mind
TTITLE6=Worried Life Blues
TTITLE7=Don't Want My Rooster Crowin' After The Sun Goes Down
TTITLE8=Lonesome In My Bedroom
TTITLE9=Diggin' My Potatoes
TTITLE10=Red Haired Boogie
TTITLE11=Blue And Disgusted
TTITLE12=Miss Ida B
TTITLE13=I'll Take Her Home To Chicago
TTITLE14=Harlem Bound
TTITLE15=El Captain
TTITLE16=I Just Landed In Your Town
EXTD=
EXTT0=
EXTT1=
EXTT2=
EXTT3=
EXTT4=
EXTT5=
EXTT6=
EXTT7=
EXTT8=
EXTT9=
EXTT10=
EXTT11=
EXTT12=
EXTT13=
EXTT14=
EXTT15=
EXTT16=
PLAYORDER=
